<mxfile host="app.diagrams.net" agent="Mozilla/5.0 (Macintosh; Intel Mac OS X 10_15_7) AppleWebKit/605.1.15 (KHTML, like Gecko) Version/17.0 Safari/605.1.15" version="24.7.16">
  <diagram name="Page-1" id="k5WQaNFhF10lf1vxy-KX">
    <mxGraphModel dx="954" dy="681" grid="1" gridSize="10" guides="1" tooltips="1" connect="1" arrows="1" fold="1" page="1" pageScale="1" pageWidth="827" pageHeight="1169" math="0" shadow="0">
      <root>
        <mxCell id="0" />
        <mxCell id="1" parent="0" />
        <mxCell id="8lU9B6NojRJWg1n-f3rk-3" value="" style="edgeStyle=orthogonalEdgeStyle;rounded=0;orthogonalLoop=1;jettySize=auto;html=1;sketch=1;curveFitting=1;jiggle=2;" edge="1" parent="1" source="8lU9B6NojRJWg1n-f3rk-1" target="8lU9B6NojRJWg1n-f3rk-2">
          <mxGeometry relative="1" as="geometry" />
        </mxCell>
        <mxCell id="8lU9B6NojRJWg1n-f3rk-6" value="" style="edgeStyle=orthogonalEdgeStyle;rounded=0;orthogonalLoop=1;jettySize=auto;html=1;sketch=1;curveFitting=1;jiggle=2;" edge="1" parent="1" source="8lU9B6NojRJWg1n-f3rk-1" target="8lU9B6NojRJWg1n-f3rk-5">
          <mxGeometry relative="1" as="geometry" />
        </mxCell>
        <mxCell id="8lU9B6NojRJWg1n-f3rk-1" value="El programa recibe una suma de entradas" style="rounded=0;whiteSpace=wrap;html=1;fillColor=#ffe6cc;strokeColor=#d79b00;sketch=1;curveFitting=1;jiggle=2;" vertex="1" parent="1">
          <mxGeometry x="234" y="40" width="356" height="40" as="geometry" />
        </mxCell>
        <mxCell id="8lU9B6NojRJWg1n-f3rk-2" value="While suma/base != 0 &amp;nbsp;" style="rhombus;whiteSpace=wrap;html=1;fillColor=#dae8fc;strokeColor=#6c8ebf;rounded=0;sketch=1;curveFitting=1;jiggle=2;" vertex="1" parent="1">
          <mxGeometry x="312" y="690" width="200" height="190" as="geometry" />
        </mxCell>
        <mxCell id="8lU9B6NojRJWg1n-f3rk-10" value="" style="edgeStyle=orthogonalEdgeStyle;rounded=0;orthogonalLoop=1;jettySize=auto;html=1;sketch=1;curveFitting=1;jiggle=2;" edge="1" parent="1" source="8lU9B6NojRJWg1n-f3rk-5" target="8lU9B6NojRJWg1n-f3rk-9">
          <mxGeometry relative="1" as="geometry" />
        </mxCell>
        <mxCell id="8lU9B6NojRJWg1n-f3rk-17" value="" style="edgeStyle=orthogonalEdgeStyle;rounded=0;orthogonalLoop=1;jettySize=auto;html=1;sketch=1;curveFitting=1;jiggle=2;" edge="1" parent="1" source="8lU9B6NojRJWg1n-f3rk-5" target="8lU9B6NojRJWg1n-f3rk-16">
          <mxGeometry relative="1" as="geometry" />
        </mxCell>
        <mxCell id="8lU9B6NojRJWg1n-f3rk-5" value="Realiza la operaciÃ³n suma/base&amp;nbsp;" style="rhombus;whiteSpace=wrap;html=1;fillColor=#ffe6cc;strokeColor=#d79b00;rounded=0;sketch=1;curveFitting=1;jiggle=2;" vertex="1" parent="1">
          <mxGeometry x="337" y="210" width="150" height="140" as="geometry" />
        </mxCell>
        <mxCell id="8lU9B6NojRJWg1n-f3rk-9" value="" style="shape=waypoint;size=6;pointerEvents=1;points=[];fillColor=#ffe6cc;resizable=0;rotatable=0;perimeter=centerPerimeter;snapToPoint=1;strokeColor=#d79b00;rounded=0;sketch=1;curveFitting=1;jiggle=2;" vertex="1" parent="1">
          <mxGeometry x="175" y="625" width="20" height="20" as="geometry" />
        </mxCell>
        <mxCell id="8lU9B6NojRJWg1n-f3rk-11" style="edgeStyle=orthogonalEdgeStyle;rounded=0;orthogonalLoop=1;jettySize=auto;html=1;entryX=0;entryY=0.5;entryDx=0;entryDy=0;sketch=1;curveFitting=1;jiggle=2;" edge="1" parent="1" source="8lU9B6NojRJWg1n-f3rk-9" target="8lU9B6NojRJWg1n-f3rk-2">
          <mxGeometry relative="1" as="geometry">
            <Array as="points">
              <mxPoint x="185" y="785" />
            </Array>
          </mxGeometry>
        </mxCell>
        <mxCell id="8lU9B6NojRJWg1n-f3rk-12" value="falso" style="text;html=1;align=center;verticalAlign=middle;whiteSpace=wrap;rounded=0;sketch=1;curveFitting=1;jiggle=2;" vertex="1" parent="1">
          <mxGeometry x="630" y="220" width="60" height="30" as="geometry" />
        </mxCell>
        <mxCell id="8lU9B6NojRJWg1n-f3rk-13" value="verdadero" style="text;html=1;align=center;verticalAlign=middle;whiteSpace=wrap;rounded=0;sketch=1;curveFitting=1;jiggle=2;" vertex="1" parent="1">
          <mxGeometry x="250" y="230" width="60" height="30" as="geometry" />
        </mxCell>
        <mxCell id="8lU9B6NojRJWg1n-f3rk-16" value="Colocar dentro del StringBuilder&amp;nbsp;&lt;div&gt;entrega_Pantalla el resultado&amp;nbsp;&lt;/div&gt;" style="whiteSpace=wrap;html=1;fillColor=#e1d5e7;strokeColor=#9673a6;rounded=0;sketch=1;curveFitting=1;jiggle=2;" vertex="1" parent="1">
          <mxGeometry x="560" y="250" width="210" height="60" as="geometry" />
        </mxCell>
        <mxCell id="8lU9B6NojRJWg1n-f3rk-21" value="" style="edgeStyle=orthogonalEdgeStyle;rounded=0;sketch=1;hachureGap=4;jiggle=2;curveFitting=1;orthogonalLoop=1;jettySize=auto;html=1;fontFamily=Architects Daughter;fontSource=https%3A%2F%2Ffonts.googleapis.com%2Fcss%3Ffamily%3DArchitects%2BDaughter;" edge="1" parent="1" source="8lU9B6NojRJWg1n-f3rk-19" target="8lU9B6NojRJWg1n-f3rk-20">
          <mxGeometry relative="1" as="geometry" />
        </mxCell>
        <mxCell id="8lU9B6NojRJWg1n-f3rk-19" value="&lt;span style=&quot;white-space: pre;&quot;&gt;Crear arreglo&lt;/span&gt;&lt;div&gt;&lt;span style=&quot;white-space: pre;&quot;&gt;tipo char &lt;/span&gt;&lt;/div&gt;&lt;div&gt;&lt;span style=&quot;white-space: pre;&quot;&gt;&lt;br&gt;&lt;/span&gt;&lt;/div&gt;" style="rounded=0;whiteSpace=wrap;html=1;sketch=1;curveFitting=1;jiggle=2;fillColor=#f8cecc;strokeColor=#b85450;" vertex="1" parent="1">
          <mxGeometry x="125" y="370" width="120" height="60" as="geometry" />
        </mxCell>
        <mxCell id="8lU9B6NojRJWg1n-f3rk-20" value="" style="whiteSpace=wrap;html=1;fillColor=#d5e8d4;strokeColor=#82b366;rounded=0;sketch=1;curveFitting=1;jiggle=2;" vertex="1" parent="1">
          <mxGeometry x="90" y="520" width="190" height="65" as="geometry" />
        </mxCell>
      </root>
    </mxGraphModel>
  </diagram>
</mxfile>
